<svg xmlns="http://www.w3.org/2000/svg" width="320" height="360" viewBox="0 0 320 360">
<defs>
<linearGradient id="linen" x1="0" y1="0" x2="1" y2="1">
  <stop offset="0" stop-color="#cfc4ad"/>
  <stop offset=".45" stop-color="#8e846f"/>
  <stop offset="1" stop-color="#514b40"/>
</linearGradient>
<linearGradient id="warm_skin" x1="0" y1="0" x2="0" y2="1">
  <stop offset="0" stop-color="#d7b58d"/>
  <stop offset="1" stop-color="#a87858"/>
</linearGradient>
<linearGradient id="old_wood" x1="0" y1="0" x2="0" y2="1">
  <stop offset="0" stop-color="#9a7a52"/>
  <stop offset=".55" stop-color="#6d5138"/>
  <stop offset="1" stop-color="#3d3028"/>
</linearGradient>
<linearGradient id="dawn_water" x1="0" y1="0" x2="0" y2="1">
  <stop offset="0" stop-color="#8da6a5"/>
  <stop offset=".45" stop-color="#617f82"/>
  <stop offset="1" stop-color="#334f56"/>
</linearGradient>
<pattern id="cloth_threads" width="10" height="10" patternUnits="userSpaceOnUse">
  <path d="M0 2 H10 M2 0 V10" stroke="#f2ead7" stroke-opacity=".10" stroke-width=".7"/>
</pattern>
<pattern id="wood_grain" width="34" height="12" patternUnits="userSpaceOnUse">
  <path d="M1 7 C9 1 18 12 33 5 M3 11 C13 6 20 16 31 10"
        fill="none" stroke="#d3b079" stroke-opacity=".20" stroke-width="1.4"/>
</pattern>
<pattern id="rice_specks" width="18" height="18" patternUnits="userSpaceOnUse">
  <circle cx="5" cy="5" r="1.3" fill="#ead89c" fill-opacity=".75"/>
  <circle cx="13" cy="11" r="1.1" fill="#c9b46e" fill-opacity=".55"/>
</pattern>
</defs>

<g id="head">
  <path d="M121 84 q1 -29 37 -32 q39 2 39 35
           l-7 36 q-13 22 -33 21 q-22 -2 -33 -21 Z"
        fill="#c59a73" stroke="#2c2723" stroke-width="3"/>
  <path d="M119 90 q5 -44 4 -45 q42 4 43 47 q-25 -26 -47 -20 q-18 17 -36 18 Z" fill="#2d2825"/><path d="M180 55 q34 -24 46 8 q-15 22 -43 11 Z" fill="#2d2825" stroke="#2c2723" stroke-width="3"/><path d="M192 57 l31 6" stroke="#839894" stroke-width="5" stroke-linecap="round"/>
  <path d="M132 96 q10 -6 20 0 M166 96 q10 -6 20 0" fill="none" stroke="#5d4a3c" stroke-width="2" stroke-linecap="round"/>
  <path d="M148 120 q10 1 21 0" fill="none" stroke="#714a3d"
        stroke-width="2" stroke-linecap="round"/>
  
  <path d="M144 135 L148 147 L174 147
        L174 135" fill="#c59a73" stroke="#2c2723" stroke-width="3"/>
</g>

</svg>
