<svg xmlns="http://www.w3.org/2000/svg" width="2200" height="720" viewBox="0 0 2200 720">
<defs></defs>
<g id="rain"><path d="M1521 39 l-12 56" stroke="#bac9c9" stroke-opacity="0.307" stroke-width="2"/><path d="M296 600 l-11 54" stroke="#bac9c9" stroke-opacity="0.164" stroke-width="1"/><path d="M1863 462 l-6 30" stroke="#bac9c9" stroke-opacity="0.242" stroke-width="1"/><path d="M1130 628 l-14 70" stroke="#bac9c9" stroke-opacity="0.113" stroke-width="1"/><path d="M2155 114 l-6 26" stroke="#bac9c9" stroke-opacity="0.332" stroke-width="1"/><path d="M270 544 l-4 20" stroke="#bac9c9" stroke-opacity="0.226" stroke-width="2"/><path d="M155 353 l-9 44" stroke="#bac9c9" stroke-opacity="0.110" stroke-width="1"/><path d="M717 -58 l-6 28" stroke="#bac9c9" stroke-opacity="0.200" stroke-width="1"/><path d="M696 57 l-6 29" stroke="#bac9c9" stroke-opacity="0.114" stroke-width="1"/><path d="M1747 478 l-13 62" stroke="#bac9c9" stroke-opacity="0.242" stroke-width="1"/><path d="M759 566 l-8 36" stroke="#bac9c9" stroke-opacity="0.342" stroke-width="2"/><path d="M1771 434 l-11 53" stroke="#bac9c9" stroke-opacity="0.197" stroke-width="1"/><path d="M2146 668 l-12 60" stroke="#bac9c9" stroke-opacity="0.150" stroke-width="1"/><path d="M364 -71 l-13 62" stroke="#bac9c9" stroke-opacity="0.246" stroke-width="1"/><path d="M1894 174 l-10 48" stroke="#bac9c9" stroke-opacity="0.207" stroke-width="1"/><path d="M1294 647 l-12 58" stroke="#bac9c9" stroke-opacity="0.342" stroke-width="2"/><path d="M1999 452 l-5 22" stroke="#bac9c9" stroke-opacity="0.261" stroke-width="1"/><path d="M1942 691 l-7 34" stroke="#bac9c9" stroke-opacity="0.316" stroke-width="1"/><path d="M1865 261 l-7 34" stroke="#bac9c9" stroke-opacity="0.149" stroke-width="1"/><path d="M2208 -108 l-9 42" stroke="#bac9c9" stroke-opacity="0.261" stroke-width="1"/><path d="M1092 -102 l-5 23" stroke="#bac9c9" stroke-opacity="0.116" stroke-width="2"/><path d="M1399 463 l-4 20" stroke="#bac9c9" stroke-opacity="0.205" stroke-width="1"/><path d="M2269 502 l-9 43" stroke="#bac9c9" stroke-opacity="0.200" stroke-width="1"/><path d="M2281 564 l-10 46" stroke="#bac9c9" stroke-opacity="0.271" stroke-width="1"/><path d="M1304 518 l-13 65" stroke="#bac9c9" stroke-opacity="0.113" stroke-width="1"/><path d="M2072 462 l-10 49" stroke="#bac9c9" stroke-opacity="0.342" stroke-width="2"/><path d="M1013 116 l-12 57" stroke="#bac9c9" stroke-opacity="0.212" stroke-width="1"/><path d="M1613 619 l-10 48" stroke="#bac9c9" stroke-opacity="0.208" stroke-width="1"/><path d="M1838 217 l-5 23" stroke="#bac9c9" stroke-opacity="0.213" stroke-width="1"/><path d="M392 100 l-5 25" stroke="#bac9c9" stroke-opacity="0.191" stroke-width="1"/><path d="M-99 140 l-4 20" stroke="#bac9c9" stroke-opacity="0.253" stroke-width="2"/><path d="M1299 275 l-12 59" stroke="#bac9c9" stroke-opacity="0.203" stroke-width="1"/><path d="M1139 174 l-7 35" stroke="#bac9c9" stroke-opacity="0.111" stroke-width="1"/><path d="M235 407 l-12 59" stroke="#bac9c9" stroke-opacity="0.140" stroke-width="1"/><path d="M1429 363 l-10 48" stroke="#bac9c9" stroke-opacity="0.261" stroke-width="1"/><path d="M490 510 l-10 46" stroke="#bac9c9" stroke-opacity="0.342" stroke-width="2"/><path d="M1597 269 l-5 22" stroke="#bac9c9" stroke-opacity="0.127" stroke-width="1"/><path d="M657 237 l-9 43" stroke="#bac9c9" stroke-opacity="0.271" stroke-width="1"/><path d="M911 69 l-13 63" stroke="#bac9c9" stroke-opacity="0.161" stroke-width="1"/><path d="M664 73 l-5 22" stroke="#bac9c9" stroke-opacity="0.340" stroke-width="1"/><path d="M29 433 l-13 62" stroke="#bac9c9" stroke-opacity="0.137" stroke-width="2"/><path d="M1926 481 l-8 37" stroke="#bac9c9" stroke-opacity="0.188" stroke-width="1"/><path d="M1417 34 l-10 46" stroke="#bac9c9" stroke-opacity="0.244" stroke-width="1"/><path d="M2239 133 l-10 50" stroke="#bac9c9" stroke-opacity="0.189" stroke-width="1"/><path d="M1172 218 l-12 56" stroke="#bac9c9" stroke-opacity="0.098" stroke-width="1"/><path d="M36 396 l-10 49" stroke="#bac9c9" stroke-opacity="0.116" stroke-width="2"/><path d="M1590 509 l-14 69" stroke="#bac9c9" stroke-opacity="0.130" stroke-width="1"/><path d="M327 141 l-14 68" stroke="#bac9c9" stroke-opacity="0.242" stroke-width="1"/><path d="M-45 564 l-5 22" stroke="#bac9c9" stroke-opacity="0.155" stroke-width="1"/><path d="M1012 535 l-11 52" stroke="#bac9c9" stroke-opacity="0.291" stroke-width="1"/><path d="M1010 698 l-10 50" stroke="#bac9c9" stroke-opacity="0.232" stroke-width="2"/><path d="M640 667 l-5 23" stroke="#bac9c9" stroke-opacity="0.128" stroke-width="1"/><path d="M299 97 l-5 23" stroke="#bac9c9" stroke-opacity="0.158" stroke-width="1"/><path d="M614 -84 l-5 23" stroke="#bac9c9" stroke-opacity="0.272" stroke-width="1"/><path d="M1545 454 l-8 36" stroke="#bac9c9" stroke-opacity="0.159" stroke-width="1"/><path d="M1104 675 l-12 56" stroke="#bac9c9" stroke-opacity="0.249" stroke-width="2"/><path d="M738 709 l-6 28" stroke="#bac9c9" stroke-opacity="0.293" stroke-width="1"/><path d="M581 143 l-6 28" stroke="#bac9c9" stroke-opacity="0.201" stroke-width="1"/><path d="M435 111 l-7 32" stroke="#bac9c9" stroke-opacity="0.269" stroke-width="1"/><path d="M337 -87 l-9 41" stroke="#bac9c9" stroke-opacity="0.221" stroke-width="1"/><path d="M304 673 l-7 31" stroke="#bac9c9" stroke-opacity="0.108" stroke-width="2"/><path d="M1359 533 l-6 30" stroke="#bac9c9" stroke-opacity="0.249" stroke-width="1"/><path d="M1969 574 l-9 43" stroke="#bac9c9" stroke-opacity="0.316" stroke-width="1"/><path d="M1656 -36 l-11 52" stroke="#bac9c9" stroke-opacity="0.154" stroke-width="1"/><path d="M510 488 l-4 20" stroke="#bac9c9" stroke-opacity="0.261" stroke-width="1"/><path d="M154 74 l-14 68" stroke="#bac9c9" stroke-opacity="0.222" stroke-width="2"/><path d="M1180 562 l-11 55" stroke="#bac9c9" stroke-opacity="0.108" stroke-width="1"/><path d="M1691 -74 l-9 44" stroke="#bac9c9" stroke-opacity="0.187" stroke-width="1"/><path d="M2161 -106 l-10 47" stroke="#bac9c9" stroke-opacity="0.311" stroke-width="1"/><path d="M-77 567 l-5 21" stroke="#bac9c9" stroke-opacity="0.268" stroke-width="1"/><path d="M1085 553 l-14 70" stroke="#bac9c9" stroke-opacity="0.291" stroke-width="2"/><path d="M265 698 l-13 63" stroke="#bac9c9" stroke-opacity="0.169" stroke-width="1"/><path d="M1173 -8 l-14 67" stroke="#bac9c9" stroke-opacity="0.251" stroke-width="1"/><path d="M1608 237 l-7 31" stroke="#bac9c9" stroke-opacity="0.203" stroke-width="1"/><path d="M239 391 l-13 61" stroke="#bac9c9" stroke-opacity="0.311" stroke-width="1"/><path d="M516 264 l-6 27" stroke="#bac9c9" stroke-opacity="0.133" stroke-width="2"/><path d="M847 310 l-13 62" stroke="#bac9c9" stroke-opacity="0.118" stroke-width="1"/><path d="M134 -25 l-8 36" stroke="#bac9c9" stroke-opacity="0.188" stroke-width="1"/><path d="M2216 358 l-10 48" stroke="#bac9c9" stroke-opacity="0.191" stroke-width="1"/><path d="M2114 377 l-12 59" stroke="#bac9c9" stroke-opacity="0.191" stroke-width="1"/><path d="M1071 14 l-7 31" stroke="#bac9c9" stroke-opacity="0.261" stroke-width="2"/><path d="M-84 236 l-5 21" stroke="#bac9c9" stroke-opacity="0.182" stroke-width="1"/><path d="M500 72 l-9 41" stroke="#bac9c9" stroke-opacity="0.157" stroke-width="1"/><path d="M-6 655 l-7 35" stroke="#bac9c9" stroke-opacity="0.224" stroke-width="1"/><path d="M146 404 l-9 43" stroke="#bac9c9" stroke-opacity="0.295" stroke-width="1"/><path d="M-84 178 l-8 37" stroke="#bac9c9" stroke-opacity="0.305" stroke-width="2"/><path d="M2183 47 l-10 47" stroke="#bac9c9" stroke-opacity="0.281" stroke-width="1"/><path d="M326 654 l-11 53" stroke="#bac9c9" stroke-opacity="0.259" stroke-width="1"/><path d="M194 14 l-9 45" stroke="#bac9c9" stroke-opacity="0.266" stroke-width="1"/><path d="M1435 -82 l-9 45" stroke="#bac9c9" stroke-opacity="0.158" stroke-width="1"/><path d="M59 349 l-14 68" stroke="#bac9c9" stroke-opacity="0.192" stroke-width="2"/><path d="M942 405 l-10 50" stroke="#bac9c9" stroke-opacity="0.346" stroke-width="1"/><path d="M1733 368 l-8 40" stroke="#bac9c9" stroke-opacity="0.274" stroke-width="1"/><path d="M1810 428 l-8 39" stroke="#bac9c9" stroke-opacity="0.161" stroke-width="1"/><path d="M107 537 l-14 69" stroke="#bac9c9" stroke-opacity="0.304" stroke-width="1"/><path d="M495 186 l-8 36" stroke="#bac9c9" stroke-opacity="0.314" stroke-width="2"/><path d="M146 493 l-8 36" stroke="#bac9c9" stroke-opacity="0.197" stroke-width="1"/><path d="M1428 176 l-13 62" stroke="#bac9c9" stroke-opacity="0.187" stroke-width="1"/><path d="M1100 307 l-8 38" stroke="#bac9c9" stroke-opacity="0.267" stroke-width="1"/><path d="M615 330 l-6 27" stroke="#bac9c9" stroke-opacity="0.313" stroke-width="1"/><path d="M1247 691 l-12 58" stroke="#bac9c9" stroke-opacity="0.110" stroke-width="2"/><path d="M105 572 l-6 27" stroke="#bac9c9" stroke-opacity="0.272" stroke-width="1"/><path d="M1494 714 l-9 43" stroke="#bac9c9" stroke-opacity="0.179" stroke-width="1"/><path d="M464 -112 l-12 59" stroke="#bac9c9" stroke-opacity="0.225" stroke-width="1"/><path d="M1334 546 l-6 29" stroke="#bac9c9" stroke-opacity="0.249" stroke-width="1"/><path d="M-3 545 l-11 51" stroke="#bac9c9" stroke-opacity="0.203" stroke-width="2"/><path d="M2110 702 l-7 33" stroke="#bac9c9" stroke-opacity="0.312" stroke-width="1"/><path d="M668 89 l-11 53" stroke="#bac9c9" stroke-opacity="0.239" stroke-width="1"/><path d="M823 623 l-6 29" stroke="#bac9c9" stroke-opacity="0.332" stroke-width="1"/><path d="M1422 187 l-10 50" stroke="#bac9c9" stroke-opacity="0.172" stroke-width="1"/><path d="M1937 558 l-6 27" stroke="#bac9c9" stroke-opacity="0.311" stroke-width="2"/><path d="M1741 77 l-6 27" stroke="#bac9c9" stroke-opacity="0.357" stroke-width="1"/><path d="M994 241 l-6 29" stroke="#bac9c9" stroke-opacity="0.209" stroke-width="1"/><path d="M706 77 l-12 58" stroke="#bac9c9" stroke-opacity="0.206" stroke-width="1"/><path d="M1147 160 l-8 39" stroke="#bac9c9" stroke-opacity="0.288" stroke-width="1"/><path d="M329 706 l-11 53" stroke="#bac9c9" stroke-opacity="0.186" stroke-width="2"/><path d="M97 190 l-10 49" stroke="#bac9c9" stroke-opacity="0.350" stroke-width="1"/><path d="M821 219 l-6 28" stroke="#bac9c9" stroke-opacity="0.313" stroke-width="1"/><path d="M973 548 l-7 35" stroke="#bac9c9" stroke-opacity="0.226" stroke-width="1"/><path d="M1245 -4 l-5 24" stroke="#bac9c9" stroke-opacity="0.228" stroke-width="1"/><path d="M2198 469 l-8 36" stroke="#bac9c9" stroke-opacity="0.294" stroke-width="2"/><path d="M763 -109 l-10 49" stroke="#bac9c9" stroke-opacity="0.277" stroke-width="1"/><path d="M564 498 l-12 58" stroke="#bac9c9" stroke-opacity="0.197" stroke-width="1"/><path d="M1996 253 l-7 34" stroke="#bac9c9" stroke-opacity="0.318" stroke-width="1"/><path d="M1599 197 l-12 56" stroke="#bac9c9" stroke-opacity="0.127" stroke-width="1"/><path d="M1259 318 l-7 32" stroke="#bac9c9" stroke-opacity="0.182" stroke-width="2"/><path d="M982 692 l-13 65" stroke="#bac9c9" stroke-opacity="0.352" stroke-width="1"/><path d="M674 717 l-10 50" stroke="#bac9c9" stroke-opacity="0.103" stroke-width="1"/><path d="M2170 644 l-14 66" stroke="#bac9c9" stroke-opacity="0.196" stroke-width="1"/><path d="M291 207 l-12 56" stroke="#bac9c9" stroke-opacity="0.316" stroke-width="1"/><path d="M888 662 l-9 45" stroke="#bac9c9" stroke-opacity="0.341" stroke-width="2"/><path d="M533 558 l-11 54" stroke="#bac9c9" stroke-opacity="0.137" stroke-width="1"/><path d="M1362 351 l-7 31" stroke="#bac9c9" stroke-opacity="0.304" stroke-width="1"/><path d="M-56 168 l-6 27" stroke="#bac9c9" stroke-opacity="0.312" stroke-width="1"/><path d="M955 286 l-12 59" stroke="#bac9c9" stroke-opacity="0.349" stroke-width="1"/><path d="M-17 -61 l-10 50" stroke="#bac9c9" stroke-opacity="0.117" stroke-width="2"/><path d="M983 74 l-8 40" stroke="#bac9c9" stroke-opacity="0.331" stroke-width="1"/><path d="M777 396 l-13 62" stroke="#bac9c9" stroke-opacity="0.319" stroke-width="1"/><path d="M1635 60 l-11 52" stroke="#bac9c9" stroke-opacity="0.191" stroke-width="1"/><path d="M-51 478 l-12 59" stroke="#bac9c9" stroke-opacity="0.221" stroke-width="1"/><path d="M2103 -8 l-8 38" stroke="#bac9c9" stroke-opacity="0.152" stroke-width="2"/><path d="M1233 23 l-12 60" stroke="#bac9c9" stroke-opacity="0.295" stroke-width="1"/><path d="M2201 295 l-13 64" stroke="#bac9c9" stroke-opacity="0.223" stroke-width="1"/><path d="M1482 616 l-6 26" stroke="#bac9c9" stroke-opacity="0.227" stroke-width="1"/><path d="M934 -42 l-8 38" stroke="#bac9c9" stroke-opacity="0.320" stroke-width="1"/><path d="M2216 602 l-11 54" stroke="#bac9c9" stroke-opacity="0.296" stroke-width="2"/><path d="M975 181 l-5 21" stroke="#bac9c9" stroke-opacity="0.127" stroke-width="1"/><path d="M791 139 l-11 53" stroke="#bac9c9" stroke-opacity="0.252" stroke-width="1"/><path d="M957 610 l-12 59" stroke="#bac9c9" stroke-opacity="0.340" stroke-width="1"/><path d="M2086 486 l-13 63" stroke="#bac9c9" stroke-opacity="0.275" stroke-width="1"/><path d="M1216 -114 l-12 58" stroke="#bac9c9" stroke-opacity="0.263" stroke-width="2"/><path d="M481 69 l-8 37" stroke="#bac9c9" stroke-opacity="0.095" stroke-width="1"/><path d="M782 700 l-5 25" stroke="#bac9c9" stroke-opacity="0.218" stroke-width="1"/><path d="M2123 251 l-10 46" stroke="#bac9c9" stroke-opacity="0.318" stroke-width="1"/><path d="M1523 -50 l-9 42" stroke="#bac9c9" stroke-opacity="0.292" stroke-width="1"/><path d="M863 245 l-5 21" stroke="#bac9c9" stroke-opacity="0.283" stroke-width="2"/><path d="M213 666 l-5 24" stroke="#bac9c9" stroke-opacity="0.125" stroke-width="1"/><path d="M2240 34 l-11 55" stroke="#bac9c9" stroke-opacity="0.296" stroke-width="1"/><path d="M1365 -8 l-13 63" stroke="#bac9c9" stroke-opacity="0.151" stroke-width="1"/><path d="M144 603 l-7 32" stroke="#bac9c9" stroke-opacity="0.302" stroke-width="1"/><path d="M916 293 l-13 62" stroke="#bac9c9" stroke-opacity="0.218" stroke-width="2"/><path d="M2022 137 l-11 52" stroke="#bac9c9" stroke-opacity="0.250" stroke-width="1"/><path d="M417 276 l-12 60" stroke="#bac9c9" stroke-opacity="0.281" stroke-width="1"/><path d="M1122 183 l-6 28" stroke="#bac9c9" stroke-opacity="0.135" stroke-width="1"/><path d="M1776 23 l-7 31" stroke="#bac9c9" stroke-opacity="0.161" stroke-width="1"/><path d="M638 326 l-10 48" stroke="#bac9c9" stroke-opacity="0.294" stroke-width="2"/><path d="M827 56 l-10 48" stroke="#bac9c9" stroke-opacity="0.262" stroke-width="1"/><path d="M831 383 l-13 65" stroke="#bac9c9" stroke-opacity="0.343" stroke-width="1"/><path d="M1287 387 l-7 33" stroke="#bac9c9" stroke-opacity="0.238" stroke-width="1"/><path d="M441 144 l-12 59" stroke="#bac9c9" stroke-opacity="0.268" stroke-width="1"/><path d="M391 90 l-11 52" stroke="#bac9c9" stroke-opacity="0.245" stroke-width="2"/><path d="M2236 464 l-9 44" stroke="#bac9c9" stroke-opacity="0.219" stroke-width="1"/><path d="M2007 113 l-5 23" stroke="#bac9c9" stroke-opacity="0.304" stroke-width="1"/><path d="M924 -2 l-14 67" stroke="#bac9c9" stroke-opacity="0.113" stroke-width="1"/><path d="M1604 147 l-11 52" stroke="#bac9c9" stroke-opacity="0.290" stroke-width="1"/><path d="M1163 696 l-13 64" stroke="#bac9c9" stroke-opacity="0.271" stroke-width="2"/><path d="M-54 675 l-11 52" stroke="#bac9c9" stroke-opacity="0.132" stroke-width="1"/><path d="M1543 -73 l-9 43" stroke="#bac9c9" stroke-opacity="0.350" stroke-width="1"/><path d="M13 698 l-13 64" stroke="#bac9c9" stroke-opacity="0.257" stroke-width="1"/><path d="M680 592 l-12 58" stroke="#bac9c9" stroke-opacity="0.201" stroke-width="1"/><path d="M78 456 l-11 55" stroke="#bac9c9" stroke-opacity="0.094" stroke-width="2"/><path d="M503 437 l-12 60" stroke="#bac9c9" stroke-opacity="0.093" stroke-width="1"/><path d="M1546 84 l-7 31" stroke="#bac9c9" stroke-opacity="0.257" stroke-width="1"/><path d="M1326 469 l-12 59" stroke="#bac9c9" stroke-opacity="0.288" stroke-width="1"/><path d="M64 135 l-11 54" stroke="#bac9c9" stroke-opacity="0.278" stroke-width="1"/></g>
</svg>
