<svg xmlns="http://www.w3.org/2000/svg" width="2200" height="720" viewBox="0 0 2200 720">
<defs></defs>

<path d="M0 514 Q240 475 484 525 Q760 575 1005 521 Q1270 472 1510 526
         Q1790 581 2200 514 L2200 720 L0 720 Z" fill="#5e5145"/>
<path d="M0 560 Q330 520 625 575 Q920 617 1205 560 Q1525 512 1790 570
         Q1990 607 2200 562 L2200 720 L0 720 Z" fill="#7c6a56" fill-opacity=".55"/>
<g id="home_props" stroke="#3c3129" stroke-width="4">
  <path d="M258 551 q55 -27 109 0 l-11 48 q-47 19 -88 0 Z" fill="#785d43"/>
  <path d="M274 549 q38 22 78 0" fill="none" stroke="#b79b70"/>
  <g stroke="#5f4934" stroke-width="8" stroke-linecap="round">
    <path d="M410 601 l64 -77"/><path d="M431 604 l71 -59"/><path d="M454 606 l71 -39"/>
  </g>
  <path d="M95 510 h118 v88 h-118 Z" fill="#423a33"/>
  <path d="M115 529 h78 v69" fill="none" stroke="#7e684e" stroke-width="6"/>
</g>
<g id="foreground_reeds"><path d="M456 726 q5 -25 -15 -49" fill="none" stroke="#77765b" stroke-width="2" stroke-linecap="round"/><path d="M534 725 q1 -35 -15 -70" fill="none" stroke="#65705a" stroke-width="5" stroke-linecap="round"/><path d="M768 684 q3 -42 -13 -84" fill="none" stroke="#65705a" stroke-width="3" stroke-linecap="round"/><path d="M1137 703 q-2 -30 8 -59" fill="none" stroke="#77765b" stroke-width="5" stroke-linecap="round"/><path d="M1785 671 q7 -43 -9 -85" fill="none" stroke="#65705a" stroke-width="3" stroke-linecap="round"/><path d="M1586 691 q-2 -38 -4 -76" fill="none" stroke="#65705a" stroke-width="3" stroke-linecap="round"/><path d="M939 696 q9 -36 13 -72" fill="none" stroke="#77765b" stroke-width="4" stroke-linecap="round"/><path d="M907 706 q-14 -46 -3 -91" fill="none" stroke="#65705a" stroke-width="4" stroke-linecap="round"/><path d="M2094 658 q10 -60 0 -119" fill="none" stroke="#65705a" stroke-width="2" stroke-linecap="round"/><path d="M1444 668 q7 -61 13 -121" fill="none" stroke="#77765b" stroke-width="3" stroke-linecap="round"/><path d="M1030 675 q2 -32 -1 -64" fill="none" stroke="#65705a" stroke-width="2" stroke-linecap="round"/><path d="M21 681 q-2 -44 4 -88" fill="none" stroke="#65705a" stroke-width="2" stroke-linecap="round"/><path d="M914 675 q-2 -65 4 -129" fill="none" stroke="#77765b" stroke-width="5" stroke-linecap="round"/><path d="M1471 712 q-5 -45 16 -89" fill="none" stroke="#65705a" stroke-width="3" stroke-linecap="round"/><path d="M1429 708 q-14 -24 13 -47" fill="none" stroke="#65705a" stroke-width="2" stroke-linecap="round"/><path d="M365 714 q7 -27 5 -53" fill="none" stroke="#77765b" stroke-width="3" stroke-linecap="round"/><path d="M1932 667 q9 -38 -3 -76" fill="none" stroke="#65705a" stroke-width="5" stroke-linecap="round"/><path d="M1694 663 q8 -44 12 -87" fill="none" stroke="#65705a" stroke-width="5" stroke-linecap="round"/><path d="M1012 686 q-6 -47 -9 -93" fill="none" stroke="#77765b" stroke-width="5" stroke-linecap="round"/><path d="M951 711 q-7 -46 -1 -91" fill="none" stroke="#65705a" stroke-width="3" stroke-linecap="round"/><path d="M2028 718 q-9 -38 16 -75" fill="none" stroke="#65705a" stroke-width="2" stroke-linecap="round"/><path d="M211 651 q-5 -34 13 -68" fill="none" stroke="#77765b" stroke-width="3" stroke-linecap="round"/><path d="M442 701 q-5 -67 -3 -133" fill="none" stroke="#65705a" stroke-width="4" stroke-linecap="round"/><path d="M2197 708 q-13 -59 -16 -117" fill="none" stroke="#65705a" stroke-width="5" stroke-linecap="round"/><path d="M2025 719 q0 -63 -7 -125" fill="none" stroke="#77765b" stroke-width="2" stroke-linecap="round"/><path d="M2171 664 q-8 -60 3 -120" fill="none" stroke="#65705a" stroke-width="3" stroke-linecap="round"/><path d="M212 698 q-6 -54 13 -108" fill="none" stroke="#65705a" stroke-width="3" stroke-linecap="round"/><path d="M646 711 q12 -23 1 -46" fill="none" stroke="#77765b" stroke-width="3" stroke-linecap="round"/><path d="M1546 657 q15 -60 1 -120" fill="none" stroke="#65705a" stroke-width="5" stroke-linecap="round"/><path d="M149 724 q-6 -39 -17 -77" fill="none" stroke="#65705a" stroke-width="2" stroke-linecap="round"/><path d="M525 667 q-10 -43 -16 -86" fill="none" stroke="#77765b" stroke-width="2" stroke-linecap="round"/><path d="M781 726 q-4 -30 6 -59" fill="none" stroke="#65705a" stroke-width="5" stroke-linecap="round"/><path d="M1589 667 q-12 -66 3 -131" fill="none" stroke="#65705a" stroke-width="2" stroke-linecap="round"/><path d="M591 727 q15 -61 9 -122" fill="none" stroke="#77765b" stroke-width="4" stroke-linecap="round"/><path d="M1921 649 q4 -49 -8 -98" fill="none" stroke="#65705a" stroke-width="2" stroke-linecap="round"/><path d="M644 727 q-2 -66 -9 -131" fill="none" stroke="#65705a" stroke-width="2" stroke-linecap="round"/><path d="M514 662 q2 -62 12 -124" fill="none" stroke="#77765b" stroke-width="3" stroke-linecap="round"/><path d="M1232 720 q6 -50 -11 -100" fill="none" stroke="#65705a" stroke-width="5" stroke-linecap="round"/><path d="M2086 666 q-9 -37 -2 -74" fill="none" stroke="#65705a" stroke-width="2" stroke-linecap="round"/><path d="M1886 727 q-15 -43 -13 -85" fill="none" stroke="#77765b" stroke-width="4" stroke-linecap="round"/><path d="M2155 707 q4 -24 -13 -47" fill="none" stroke="#65705a" stroke-width="2" stroke-linecap="round"/><path d="M1785 699 q-12 -62 -15 -124" fill="none" stroke="#65705a" stroke-width="3" stroke-linecap="round"/><path d="M1712 704 q7 -63 -8 -126" fill="none" stroke="#77765b" stroke-width="5" stroke-linecap="round"/><path d="M1060 667 q-12 -47 15 -94" fill="none" stroke="#65705a" stroke-width="5" stroke-linecap="round"/><path d="M1553 728 q5 -57 -8 -114" fill="none" stroke="#65705a" stroke-width="5" stroke-linecap="round"/><path d="M971 691 q1 -23 10 -46" fill="none" stroke="#77765b" stroke-width="3" stroke-linecap="round"/><path d="M597 661 q-3 -68 18 -135" fill="none" stroke="#65705a" stroke-width="5" stroke-linecap="round"/><path d="M1299 723 q2 -35 8 -69" fill="none" stroke="#65705a" stroke-width="4" stroke-linecap="round"/><path d="M1698 702 q4 -30 3 -59" fill="none" stroke="#77765b" stroke-width="3" stroke-linecap="round"/><path d="M1349 662 q7 -60 7 -119" fill="none" stroke="#65705a" stroke-width="5" stroke-linecap="round"/><path d="M1166 705 q-4 -60 -4 -119" fill="none" stroke="#65705a" stroke-width="5" stroke-linecap="round"/><path d="M877 675 q5 -44 6 -88" fill="none" stroke="#77765b" stroke-width="4" stroke-linecap="round"/><path d="M602 678 q12 -52 13 -103" fill="none" stroke="#65705a" stroke-width="5" stroke-linecap="round"/><path d="M1549 694 q-5 -39 -2 -77" fill="none" stroke="#65705a" stroke-width="5" stroke-linecap="round"/><path d="M1493 702 q-10 -70 -6 -139" fill="none" stroke="#77765b" stroke-width="4" stroke-linecap="round"/><path d="M1894 697 q-9 -40 -16 -79" fill="none" stroke="#65705a" stroke-width="2" stroke-linecap="round"/><path d="M179 694 q-6 -69 12 -138" fill="none" stroke="#65705a" stroke-width="2" stroke-linecap="round"/><path d="M254 675 q16 -68 14 -136" fill="none" stroke="#77765b" stroke-width="3" stroke-linecap="round"/><path d="M725 684 q12 -35 3 -69" fill="none" stroke="#65705a" stroke-width="2" stroke-linecap="round"/><path d="M1756 661 q-3 -49 13 -98" fill="none" stroke="#65705a" stroke-width="2" stroke-linecap="round"/><path d="M928 728 q-9 -35 -18 -70" fill="none" stroke="#77765b" stroke-width="4" stroke-linecap="round"/><path d="M-5 679 q11 -24 -15 -48" fill="none" stroke="#65705a" stroke-width="2" stroke-linecap="round"/><path d="M1868 651 q-1 -56 0 -112" fill="none" stroke="#65705a" stroke-width="3" stroke-linecap="round"/><path d="M-11 672 q7 -37 7 -74" fill="none" stroke="#77765b" stroke-width="4" stroke-linecap="round"/><path d="M1261 662 q-16 -61 8 -122" fill="none" stroke="#65705a" stroke-width="2" stroke-linecap="round"/><path d="M1766 664 q4 -52 -4 -104" fill="none" stroke="#65705a" stroke-width="5" stroke-linecap="round"/><path d="M1965 670 q5 -37 -9 -74" fill="none" stroke="#77765b" stroke-width="2" stroke-linecap="round"/><path d="M159 659 q16 -55 -5 -110" fill="none" stroke="#65705a" stroke-width="2" stroke-linecap="round"/><path d="M558 699 q13 -60 13 -120" fill="none" stroke="#65705a" stroke-width="5" stroke-linecap="round"/><path d="M386 697 q11 -68 3 -136" fill="none" stroke="#77765b" stroke-width="5" stroke-linecap="round"/><path d="M401 665 q7 -52 -7 -103" fill="none" stroke="#65705a" stroke-width="5" stroke-linecap="round"/><path d="M2185 657 q-3 -68 -5 -135" fill="none" stroke="#65705a" stroke-width="2" stroke-linecap="round"/><path d="M-14 674 q-12 -31 -15 -62" fill="none" stroke="#77765b" stroke-width="5" stroke-linecap="round"/><path d="M1658 686 q-9 -45 -3 -90" fill="none" stroke="#65705a" stroke-width="5" stroke-linecap="round"/><path d="M954 701 q-4 -46 18 -91" fill="none" stroke="#65705a" stroke-width="5" stroke-linecap="round"/><path d="M793 676 q-11 -38 -14 -76" fill="none" stroke="#77765b" stroke-width="3" stroke-linecap="round"/></g>

</svg>
